<mxfile host="app.diagrams.net" modified="2020-09-30T09:08:34.151Z" agent="5.0 (Windows)" etag="shfoSmOppQHbKOlRnNtl" version="13.7.6" type="github">
  <diagram id="HCjlsUTrmh2EexDiTpK0" name="Page-1">
    <mxGraphModel dx="1038" dy="585" grid="1" gridSize="10" guides="1" tooltips="1" connect="1" arrows="1" fold="1" page="1" pageScale="1" pageWidth="3300" pageHeight="4681" math="0" shadow="0">
      <root>
        <mxCell id="0" />
        <mxCell id="1" parent="0" />
        <mxCell id="MkxSJBY8i_nxqdHzeQMz-1" value="" style="ellipse;whiteSpace=wrap;html=1;aspect=fixed;" vertex="1" parent="1">
          <mxGeometry x="310" y="290" width="140" height="140" as="geometry" />
        </mxCell>
        <mxCell id="MkxSJBY8i_nxqdHzeQMz-2" value="" style="endArrow=none;html=1;exitX=0.5;exitY=1;exitDx=0;exitDy=0;" edge="1" parent="1" source="MkxSJBY8i_nxqdHzeQMz-1">
          <mxGeometry width="50" height="50" relative="1" as="geometry">
            <mxPoint x="330" y="340" as="sourcePoint" />
            <mxPoint x="380" y="290" as="targetPoint" />
            <Array as="points" />
          </mxGeometry>
        </mxCell>
        <mxCell id="MkxSJBY8i_nxqdHzeQMz-3" value="" style="endArrow=none;html=1;entryX=1;entryY=0.5;entryDx=0;entryDy=0;" edge="1" parent="1" target="MkxSJBY8i_nxqdHzeQMz-1">
          <mxGeometry width="50" height="50" relative="1" as="geometry">
            <mxPoint x="380" y="360" as="sourcePoint" />
            <mxPoint x="640" y="440" as="targetPoint" />
            <Array as="points" />
          </mxGeometry>
        </mxCell>
        <mxCell id="MkxSJBY8i_nxqdHzeQMz-4" value="&lt;font style=&quot;font-size: 25px&quot;&gt;1&lt;/font&gt;" style="text;html=1;strokeColor=none;fillColor=none;align=center;verticalAlign=middle;whiteSpace=wrap;rounded=0;" vertex="1" parent="1">
          <mxGeometry x="330" y="350" width="40" height="20" as="geometry" />
        </mxCell>
        <mxCell id="MkxSJBY8i_nxqdHzeQMz-5" value="&lt;font style=&quot;font-size: 25px&quot;&gt;0&lt;/font&gt;" style="text;html=1;strokeColor=none;fillColor=none;align=center;verticalAlign=middle;whiteSpace=wrap;rounded=0;" vertex="1" parent="1">
          <mxGeometry x="390" y="320" width="40" height="20" as="geometry" />
        </mxCell>
        <mxCell id="MkxSJBY8i_nxqdHzeQMz-6" value="&lt;font style=&quot;font-size: 25px&quot;&gt;0&lt;/font&gt;" style="text;html=1;strokeColor=none;fillColor=none;align=center;verticalAlign=middle;whiteSpace=wrap;rounded=0;" vertex="1" parent="1">
          <mxGeometry x="390" y="380" width="40" height="20" as="geometry" />
        </mxCell>
        <mxCell id="MkxSJBY8i_nxqdHzeQMz-7" value="" style="endArrow=classic;html=1;exitX=1;exitY=0.5;exitDx=0;exitDy=0;" edge="1" parent="1" source="MkxSJBY8i_nxqdHzeQMz-1">
          <mxGeometry width="50" height="50" relative="1" as="geometry">
            <mxPoint x="390" y="490" as="sourcePoint" />
            <mxPoint x="610" y="200" as="targetPoint" />
          </mxGeometry>
        </mxCell>
        <mxCell id="MkxSJBY8i_nxqdHzeQMz-8" value="" style="ellipse;whiteSpace=wrap;html=1;aspect=fixed;" vertex="1" parent="1">
          <mxGeometry x="610" y="120" width="140" height="140" as="geometry" />
        </mxCell>
        <mxCell id="MkxSJBY8i_nxqdHzeQMz-9" value="" style="endArrow=none;html=1;exitX=0.5;exitY=1;exitDx=0;exitDy=0;" edge="1" source="MkxSJBY8i_nxqdHzeQMz-8" parent="1">
          <mxGeometry width="50" height="50" relative="1" as="geometry">
            <mxPoint x="630" y="170" as="sourcePoint" />
            <mxPoint x="680" y="120" as="targetPoint" />
            <Array as="points" />
          </mxGeometry>
        </mxCell>
        <mxCell id="MkxSJBY8i_nxqdHzeQMz-10" value="" style="endArrow=none;html=1;entryX=1;entryY=0.5;entryDx=0;entryDy=0;" edge="1" target="MkxSJBY8i_nxqdHzeQMz-8" parent="1">
          <mxGeometry width="50" height="50" relative="1" as="geometry">
            <mxPoint x="680" y="190" as="sourcePoint" />
            <mxPoint x="940" y="270" as="targetPoint" />
            <Array as="points" />
          </mxGeometry>
        </mxCell>
        <mxCell id="MkxSJBY8i_nxqdHzeQMz-11" value="&lt;font style=&quot;font-size: 25px&quot;&gt;2&lt;/font&gt;" style="text;html=1;strokeColor=none;fillColor=none;align=center;verticalAlign=middle;whiteSpace=wrap;rounded=0;" vertex="1" parent="1">
          <mxGeometry x="630" y="180" width="40" height="20" as="geometry" />
        </mxCell>
        <mxCell id="MkxSJBY8i_nxqdHzeQMz-12" value="&lt;font style=&quot;font-size: 25px&quot;&gt;4&lt;/font&gt;" style="text;html=1;strokeColor=none;fillColor=none;align=center;verticalAlign=middle;whiteSpace=wrap;rounded=0;" vertex="1" parent="1">
          <mxGeometry x="690" y="150" width="40" height="20" as="geometry" />
        </mxCell>
        <mxCell id="MkxSJBY8i_nxqdHzeQMz-13" value="&lt;font style=&quot;font-size: 25px&quot;&gt;4&lt;/font&gt;" style="text;html=1;strokeColor=none;fillColor=none;align=center;verticalAlign=middle;whiteSpace=wrap;rounded=0;" vertex="1" parent="1">
          <mxGeometry x="690" y="210" width="40" height="20" as="geometry" />
        </mxCell>
        <mxCell id="MkxSJBY8i_nxqdHzeQMz-16" value="&lt;div style=&quot;font-size: 14px&quot;&gt;&lt;font style=&quot;font-size: 14px&quot;&gt;Locatie vastleggen&lt;/font&gt;&lt;/div&gt;&lt;div style=&quot;font-size: 14px&quot;&gt;&lt;font style=&quot;font-size: 14px&quot;&gt;2 weken&lt;/font&gt;&lt;br&gt;&lt;/div&gt;" style="rounded=1;whiteSpace=wrap;html=1;strokeColor=none;" vertex="1" parent="1">
          <mxGeometry x="470" y="250" width="120" height="60" as="geometry" />
        </mxCell>
        <mxCell id="MkxSJBY8i_nxqdHzeQMz-17" value="" style="endArrow=classic;html=1;exitX=1;exitY=0.5;exitDx=0;exitDy=0;" edge="1" parent="1" source="MkxSJBY8i_nxqdHzeQMz-27">
          <mxGeometry width="50" height="50" relative="1" as="geometry">
            <mxPoint x="940" y="120" as="sourcePoint" />
            <mxPoint x="1010" y="190" as="targetPoint" />
          </mxGeometry>
        </mxCell>
        <mxCell id="MkxSJBY8i_nxqdHzeQMz-18" value="" style="ellipse;whiteSpace=wrap;html=1;aspect=fixed;" vertex="1" parent="1">
          <mxGeometry x="1010" y="120" width="140" height="140" as="geometry" />
        </mxCell>
        <mxCell id="MkxSJBY8i_nxqdHzeQMz-19" value="" style="endArrow=none;html=1;exitX=0.5;exitY=1;exitDx=0;exitDy=0;" edge="1" source="MkxSJBY8i_nxqdHzeQMz-18" parent="1">
          <mxGeometry width="50" height="50" relative="1" as="geometry">
            <mxPoint x="1030" y="170" as="sourcePoint" />
            <mxPoint x="1080" y="120" as="targetPoint" />
            <Array as="points" />
          </mxGeometry>
        </mxCell>
        <mxCell id="MkxSJBY8i_nxqdHzeQMz-20" value="" style="endArrow=none;html=1;entryX=1;entryY=0.5;entryDx=0;entryDy=0;" edge="1" target="MkxSJBY8i_nxqdHzeQMz-18" parent="1">
          <mxGeometry width="50" height="50" relative="1" as="geometry">
            <mxPoint x="1080" y="190" as="sourcePoint" />
            <mxPoint x="1340" y="270" as="targetPoint" />
            <Array as="points" />
          </mxGeometry>
        </mxCell>
        <mxCell id="MkxSJBY8i_nxqdHzeQMz-24" value="&lt;font style=&quot;font-size: 25px&quot;&gt;5&lt;/font&gt;" style="text;html=1;strokeColor=none;fillColor=none;align=center;verticalAlign=middle;whiteSpace=wrap;rounded=0;" vertex="1" parent="1">
          <mxGeometry x="1030" y="180" width="40" height="20" as="geometry" />
        </mxCell>
        <mxCell id="MkxSJBY8i_nxqdHzeQMz-25" value="&lt;font style=&quot;font-size: 25px&quot;&gt;5&lt;/font&gt;" style="text;html=1;strokeColor=none;fillColor=none;align=center;verticalAlign=middle;whiteSpace=wrap;rounded=0;" vertex="1" parent="1">
          <mxGeometry x="1090" y="150" width="40" height="20" as="geometry" />
        </mxCell>
        <mxCell id="MkxSJBY8i_nxqdHzeQMz-26" value="&lt;font style=&quot;font-size: 25px&quot;&gt;5&lt;/font&gt;" style="text;html=1;strokeColor=none;fillColor=none;align=center;verticalAlign=middle;whiteSpace=wrap;rounded=0;" vertex="1" parent="1">
          <mxGeometry x="1090" y="210" width="40" height="20" as="geometry" />
        </mxCell>
        <mxCell id="MkxSJBY8i_nxqdHzeQMz-28" value="" style="endArrow=classic;html=1;exitX=1;exitY=0.5;exitDx=0;exitDy=0;entryX=0;entryY=0.5;entryDx=0;entryDy=0;" edge="1" parent="1" source="MkxSJBY8i_nxqdHzeQMz-8" target="MkxSJBY8i_nxqdHzeQMz-18">
          <mxGeometry width="50" height="50" relative="1" as="geometry">
            <mxPoint x="750" y="190" as="sourcePoint" />
            <mxPoint x="1010" y="190" as="targetPoint" />
          </mxGeometry>
        </mxCell>
        <mxCell id="MkxSJBY8i_nxqdHzeQMz-27" value="&lt;div style=&quot;font-size: 16px&quot;&gt;&lt;font style=&quot;font-size: 16px&quot;&gt;Affiches maken&lt;/font&gt;&lt;/div&gt;&lt;div style=&quot;font-size: 16px&quot;&gt;&lt;font style=&quot;font-size: 16px&quot;&gt;1 week&lt;/font&gt;&lt;br&gt;&lt;/div&gt;" style="rounded=1;whiteSpace=wrap;html=1;strokeColor=none;" vertex="1" parent="1">
          <mxGeometry x="820" y="160" width="120" height="60" as="geometry" />
        </mxCell>
        <mxCell id="MkxSJBY8i_nxqdHzeQMz-29" value="" style="ellipse;whiteSpace=wrap;html=1;aspect=fixed;" vertex="1" parent="1">
          <mxGeometry x="610" y="400" width="140" height="140" as="geometry" />
        </mxCell>
        <mxCell id="MkxSJBY8i_nxqdHzeQMz-30" value="" style="endArrow=none;html=1;exitX=0.5;exitY=1;exitDx=0;exitDy=0;" edge="1" source="MkxSJBY8i_nxqdHzeQMz-29" parent="1">
          <mxGeometry width="50" height="50" relative="1" as="geometry">
            <mxPoint x="630" y="450" as="sourcePoint" />
            <mxPoint x="680" y="400" as="targetPoint" />
            <Array as="points" />
          </mxGeometry>
        </mxCell>
        <mxCell id="MkxSJBY8i_nxqdHzeQMz-31" value="" style="endArrow=none;html=1;entryX=1;entryY=0.5;entryDx=0;entryDy=0;" edge="1" target="MkxSJBY8i_nxqdHzeQMz-29" parent="1">
          <mxGeometry width="50" height="50" relative="1" as="geometry">
            <mxPoint x="680" y="470" as="sourcePoint" />
            <mxPoint x="940" y="550" as="targetPoint" />
            <Array as="points" />
          </mxGeometry>
        </mxCell>
        <mxCell id="MkxSJBY8i_nxqdHzeQMz-32" value="&lt;font style=&quot;font-size: 25px&quot;&gt;3&lt;/font&gt;" style="text;html=1;strokeColor=none;fillColor=none;align=center;verticalAlign=middle;whiteSpace=wrap;rounded=0;" vertex="1" parent="1">
          <mxGeometry x="630" y="460" width="40" height="20" as="geometry" />
        </mxCell>
        <mxCell id="MkxSJBY8i_nxqdHzeQMz-33" value="&lt;font style=&quot;font-size: 25px&quot;&gt;4&lt;/font&gt;" style="text;html=1;strokeColor=none;fillColor=none;align=center;verticalAlign=middle;whiteSpace=wrap;rounded=0;" vertex="1" parent="1">
          <mxGeometry x="690" y="490" width="40" height="20" as="geometry" />
        </mxCell>
        <mxCell id="MkxSJBY8i_nxqdHzeQMz-35" value="&lt;font style=&quot;font-size: 25px&quot;&gt;4&lt;/font&gt;" style="text;html=1;strokeColor=none;fillColor=none;align=center;verticalAlign=middle;whiteSpace=wrap;rounded=0;" vertex="1" parent="1">
          <mxGeometry x="690" y="430" width="40" height="20" as="geometry" />
        </mxCell>
        <mxCell id="MkxSJBY8i_nxqdHzeQMz-36" value="" style="endArrow=classic;html=1;exitX=1;exitY=0.5;exitDx=0;exitDy=0;entryX=0;entryY=0.5;entryDx=0;entryDy=0;fontColor=#FF0000;strokeColor=#FF0000;" edge="1" parent="1" source="MkxSJBY8i_nxqdHzeQMz-1" target="MkxSJBY8i_nxqdHzeQMz-29">
          <mxGeometry width="50" height="50" relative="1" as="geometry">
            <mxPoint x="750" y="390" as="sourcePoint" />
            <mxPoint x="800" y="340" as="targetPoint" />
          </mxGeometry>
        </mxCell>
        <mxCell id="MkxSJBY8i_nxqdHzeQMz-38" value="" style="endArrow=classic;html=1;dashed=1;entryX=0.5;entryY=1;entryDx=0;entryDy=0;exitX=0.5;exitY=0;exitDx=0;exitDy=0;" edge="1" parent="1" source="MkxSJBY8i_nxqdHzeQMz-29" target="MkxSJBY8i_nxqdHzeQMz-8">
          <mxGeometry width="50" height="50" relative="1" as="geometry">
            <mxPoint x="750" y="390" as="sourcePoint" />
            <mxPoint x="800" y="340" as="targetPoint" />
          </mxGeometry>
        </mxCell>
        <mxCell id="MkxSJBY8i_nxqdHzeQMz-39" value="&lt;font style=&quot;font-size: 15px&quot;&gt;0&lt;/font&gt;" style="text;html=1;strokeColor=none;align=center;verticalAlign=middle;whiteSpace=wrap;rounded=0;fillColor=#ffffff;" vertex="1" parent="1">
          <mxGeometry x="660" y="320" width="40" height="20" as="geometry" />
        </mxCell>
        <mxCell id="MkxSJBY8i_nxqdHzeQMz-40" value="&lt;div style=&quot;font-size: 15px&quot;&gt;&lt;font style=&quot;font-size: 15px&quot;&gt;DJ&#39;s regelen&lt;/font&gt;&lt;/div&gt;&lt;div style=&quot;font-size: 15px&quot;&gt;&lt;font style=&quot;font-size: 15px&quot;&gt;4 weken&lt;/font&gt;&lt;br&gt;&lt;/div&gt;" style="rounded=1;whiteSpace=wrap;html=1;fillColor=#ffffff;strokeColor=none;fontColor=#FF0000;" vertex="1" parent="1">
          <mxGeometry x="460" y="390" width="120" height="60" as="geometry" />
        </mxCell>
        <mxCell id="MkxSJBY8i_nxqdHzeQMz-41" value="" style="ellipse;whiteSpace=wrap;html=1;aspect=fixed;" vertex="1" parent="1">
          <mxGeometry x="610" y="670" width="140" height="140" as="geometry" />
        </mxCell>
        <mxCell id="MkxSJBY8i_nxqdHzeQMz-42" value="" style="endArrow=none;html=1;exitX=0.5;exitY=1;exitDx=0;exitDy=0;" edge="1" source="MkxSJBY8i_nxqdHzeQMz-41" parent="1">
          <mxGeometry width="50" height="50" relative="1" as="geometry">
            <mxPoint x="630" y="720" as="sourcePoint" />
            <mxPoint x="680" y="670" as="targetPoint" />
            <Array as="points" />
          </mxGeometry>
        </mxCell>
        <mxCell id="MkxSJBY8i_nxqdHzeQMz-43" value="" style="endArrow=none;html=1;entryX=1;entryY=0.5;entryDx=0;entryDy=0;" edge="1" target="MkxSJBY8i_nxqdHzeQMz-41" parent="1">
          <mxGeometry width="50" height="50" relative="1" as="geometry">
            <mxPoint x="680" y="740" as="sourcePoint" />
            <mxPoint x="940" y="820" as="targetPoint" />
            <Array as="points" />
          </mxGeometry>
        </mxCell>
        <mxCell id="MkxSJBY8i_nxqdHzeQMz-44" value="&lt;font style=&quot;font-size: 24px&quot;&gt;4&lt;/font&gt;" style="text;html=1;strokeColor=none;fillColor=none;align=center;verticalAlign=middle;whiteSpace=wrap;rounded=0;" vertex="1" parent="1">
          <mxGeometry x="630" y="730" width="40" height="20" as="geometry" />
        </mxCell>
        <mxCell id="MkxSJBY8i_nxqdHzeQMz-45" value="&lt;font style=&quot;font-size: 25px&quot;&gt;2&lt;/font&gt;" style="text;html=1;strokeColor=none;fillColor=none;align=center;verticalAlign=middle;whiteSpace=wrap;rounded=0;" vertex="1" parent="1">
          <mxGeometry x="690" y="700" width="40" height="20" as="geometry" />
        </mxCell>
        <mxCell id="MkxSJBY8i_nxqdHzeQMz-46" value="&lt;font style=&quot;font-size: 25px&quot;&gt;5&lt;/font&gt;" style="text;html=1;strokeColor=none;fillColor=none;align=center;verticalAlign=middle;whiteSpace=wrap;rounded=0;" vertex="1" parent="1">
          <mxGeometry x="690" y="760" width="40" height="20" as="geometry" />
        </mxCell>
        <mxCell id="MkxSJBY8i_nxqdHzeQMz-47" value="" style="endArrow=classic;html=1;fontColor=#000000;exitX=1;exitY=1;exitDx=0;exitDy=0;entryX=0;entryY=0.5;entryDx=0;entryDy=0;" edge="1" parent="1" source="MkxSJBY8i_nxqdHzeQMz-1" target="MkxSJBY8i_nxqdHzeQMz-41">
          <mxGeometry width="50" height="50" relative="1" as="geometry">
            <mxPoint x="750" y="540" as="sourcePoint" />
            <mxPoint x="800" y="490" as="targetPoint" />
          </mxGeometry>
        </mxCell>
        <mxCell id="MkxSJBY8i_nxqdHzeQMz-48" value="&lt;div style=&quot;font-size: 14px&quot;&gt;&lt;font style=&quot;font-size: 14px&quot;&gt;Personeel regelen&lt;/font&gt;&lt;/div&gt;&lt;div style=&quot;font-size: 14px&quot;&gt;&lt;font style=&quot;font-size: 14px&quot;&gt;2 weken&lt;/font&gt;&lt;br&gt;&lt;/div&gt;" style="rounded=1;whiteSpace=wrap;html=1;fillColor=#ffffff;fontColor=#000000;strokeColor=none;" vertex="1" parent="1">
          <mxGeometry x="460" y="540" width="120" height="60" as="geometry" />
        </mxCell>
        <mxCell id="MkxSJBY8i_nxqdHzeQMz-50" value="" style="ellipse;whiteSpace=wrap;html=1;aspect=fixed;" vertex="1" parent="1">
          <mxGeometry x="1010" y="480" width="140" height="140" as="geometry" />
        </mxCell>
        <mxCell id="MkxSJBY8i_nxqdHzeQMz-51" value="" style="endArrow=none;html=1;exitX=0.5;exitY=1;exitDx=0;exitDy=0;" edge="1" source="MkxSJBY8i_nxqdHzeQMz-50" parent="1">
          <mxGeometry width="50" height="50" relative="1" as="geometry">
            <mxPoint x="1030" y="530" as="sourcePoint" />
            <mxPoint x="1080" y="480" as="targetPoint" />
            <Array as="points" />
          </mxGeometry>
        </mxCell>
        <mxCell id="MkxSJBY8i_nxqdHzeQMz-52" value="" style="endArrow=none;html=1;entryX=1;entryY=0.5;entryDx=0;entryDy=0;" edge="1" target="MkxSJBY8i_nxqdHzeQMz-50" parent="1">
          <mxGeometry width="50" height="50" relative="1" as="geometry">
            <mxPoint x="1080" y="550" as="sourcePoint" />
            <mxPoint x="1340" y="630" as="targetPoint" />
            <Array as="points" />
          </mxGeometry>
        </mxCell>
        <mxCell id="MkxSJBY8i_nxqdHzeQMz-53" value="&lt;font style=&quot;font-size: 25px&quot;&gt;6&lt;/font&gt;" style="text;html=1;strokeColor=none;fillColor=none;align=center;verticalAlign=middle;whiteSpace=wrap;rounded=0;" vertex="1" parent="1">
          <mxGeometry x="1030" y="540" width="40" height="20" as="geometry" />
        </mxCell>
        <mxCell id="MkxSJBY8i_nxqdHzeQMz-54" value="&lt;font style=&quot;font-size: 25px&quot;&gt;6&lt;/font&gt;" style="text;html=1;strokeColor=none;fillColor=none;align=center;verticalAlign=middle;whiteSpace=wrap;rounded=0;" vertex="1" parent="1">
          <mxGeometry x="1090" y="510" width="40" height="20" as="geometry" />
        </mxCell>
        <mxCell id="MkxSJBY8i_nxqdHzeQMz-55" value="&lt;font style=&quot;font-size: 25px&quot;&gt;6&lt;/font&gt;" style="text;html=1;strokeColor=none;fillColor=none;align=center;verticalAlign=middle;whiteSpace=wrap;rounded=0;" vertex="1" parent="1">
          <mxGeometry x="1090" y="570" width="40" height="20" as="geometry" />
        </mxCell>
        <mxCell id="MkxSJBY8i_nxqdHzeQMz-56" value="" style="endArrow=classic;html=1;fontColor=#000000;exitX=0.5;exitY=1;exitDx=0;exitDy=0;strokeColor=#FF0000;" edge="1" parent="1" source="MkxSJBY8i_nxqdHzeQMz-18">
          <mxGeometry width="50" height="50" relative="1" as="geometry">
            <mxPoint x="820" y="540" as="sourcePoint" />
            <mxPoint x="1080" y="480" as="targetPoint" />
          </mxGeometry>
        </mxCell>
        <mxCell id="MkxSJBY8i_nxqdHzeQMz-57" value="&lt;div style=&quot;font-size: 15px&quot;&gt;&lt;font style=&quot;font-size: 15px&quot;&gt;Festival&lt;/font&gt;&lt;/div&gt;&lt;div style=&quot;font-size: 15px&quot;&gt;&lt;font style=&quot;font-size: 15px&quot;&gt;1 week&lt;/font&gt;&lt;/div&gt;" style="rounded=1;whiteSpace=wrap;html=1;fillColor=#ffffff;fontColor=#000000;strokeColor=none;" vertex="1" parent="1">
          <mxGeometry x="1020" y="330" width="120" height="60" as="geometry" />
        </mxCell>
        <mxCell id="MkxSJBY8i_nxqdHzeQMz-60" value="" style="endArrow=classic;html=1;fontColor=#000000;exitX=0.75;exitY=0;exitDx=0;exitDy=0;entryX=0;entryY=1;entryDx=0;entryDy=0;dashed=1;labelBackgroundColor=#ffffff;" edge="1" parent="1" source="MkxSJBY8i_nxqdHzeQMz-61" target="MkxSJBY8i_nxqdHzeQMz-18">
          <mxGeometry width="50" height="50" relative="1" as="geometry">
            <mxPoint x="729.4974746830583" y="690.5025253169417" as="sourcePoint" />
            <mxPoint x="1030.5025253169415" y="239.4974746830585" as="targetPoint" />
          </mxGeometry>
        </mxCell>
        <mxCell id="MkxSJBY8i_nxqdHzeQMz-61" value="&lt;font style=&quot;font-size: 15px&quot;&gt;0&lt;/font&gt;" style="text;html=1;strokeColor=none;align=center;verticalAlign=middle;whiteSpace=wrap;rounded=0;fillColor=#ffffff;" vertex="1" parent="1">
          <mxGeometry x="860" y="450" width="40" height="20" as="geometry" />
        </mxCell>
        <mxCell id="MkxSJBY8i_nxqdHzeQMz-62" value="" style="endArrow=none;html=1;fontColor=#000000;exitX=1;exitY=0;exitDx=0;exitDy=0;entryX=0.5;entryY=1;entryDx=0;entryDy=0;dashed=1;labelBackgroundColor=#ffffff;endFill=0;" edge="1" parent="1" source="MkxSJBY8i_nxqdHzeQMz-41" target="MkxSJBY8i_nxqdHzeQMz-61">
          <mxGeometry width="50" height="50" relative="1" as="geometry">
            <mxPoint x="729.4974746830583" y="690.5025253169417" as="sourcePoint" />
            <mxPoint x="1030.5025253169415" y="239.4974746830585" as="targetPoint" />
          </mxGeometry>
        </mxCell>
      </root>
    </mxGraphModel>
  </diagram>
</mxfile>
